<?xml version="1.0" encoding="UTF-8"?>
<svg id="Layer_1" data-name="Layer 1" width="100px" height="100px" fill="#fff" xmlns="http://www.w3.org/2000/svg" viewBox="0 0 304.81 239.99">

  <path class="cls-1" d="m6.54,101.07c.59,0,1.15-.27,1.52-.73C65.93,29.29,141.32,1.41,200.63,33.27c47.61,25.57,61.32,88.96,33.56,135.33-8.33,13.91-20.15,25.68-34.26,32.81-1.5.76-2.68,1.43-3.62,2.02-1.43.91-.54,3.13,1.12,2.81,26.77-5.25,51.13-21.94,64.7-47.31,29.01-54.27,7.47-119.66-48.01-146.29C143.45-21.28,40.93,14.99,4.69,98.31c-.57,1.3.42,2.77,1.85,2.76h0Z"/>
  <path class="cls-1" d="m299.31,138.92c-.59,0-1.15.27-1.52.73-57.87,71.05-133.26,98.93-192.57,67.07-47.61-25.57-61.32-88.96-33.56-135.33,8.33-13.91,20.15-25.68,34.26-32.81,1.49-.75,2.68-1.42,3.61-2.02,1.43-.91.54-3.14-1.12-2.81-26.77,5.26-51.13,21.94-64.69,47.31-29.01,54.27-7.47,119.66,48.01,146.29,70.67,33.92,173.19-2.35,209.43-85.67.57-1.29-.42-2.77-1.85-2.76h0Z"/>
  <path class="cls-1" d="m32.37,83.85c1.09.07,1.74,1.22,1.28,2.2-10.71,22.9-13.83,47.83-8.85,71.96.58,2.79,2.03,7.89,2.99,11.11.07.22.1.43.1.65,0,1.2-1,2.24-2.28,2.24-.78,0-1.49-.4-1.91-1.05-8.6-13.32-16.19-26.67-22.43-40.07-2.29-4.91-1.43-10.71,2.12-14.8l27.52-31.73c.32-.37.79-.56,1.28-.53l.18.02Z"/>
  <path class="cls-1" d="m272.44,158.48c-1.09-.07-1.74-1.22-1.28-2.2,10.71-22.9,13.83-47.83,8.85-71.96-.58-2.79-2.03-7.89-2.99-11.11-.07-.22-.1-.43-.1-.65,0-1.2,1-2.24,2.28-2.24.78,0,1.49.4,1.91,1.05,8.6,13.32,16.19,26.67,22.43,40.07,2.29,4.91,1.43,10.71-2.12,14.8l-27.52,31.73c-.32.37-.79.56-1.28.53l-.18-.02Z"/>
  <path class="cls-1" d="m121.26,43.69c-6.27,2.69-12.17,5.85-17.72,9.48-1.07.7-2.43-.38-1.98-1.58.49-1.29,1.03-2.56,1.62-3.81.72-1.52,1.81-2.85,3.22-3.78,3.62-2.39,7.52-4.59,11.62-6.57,1.17-.56,2.58-.28,3.44.69.29.33.58.67.87,1.03,1.22,1.5.7,3.78-1.07,4.54Z"/>
  <path class="cls-1" d="m177.91,61.28c-9.83,1.31-20,3.86-30.1,7.58-1.61.59-3.39-.14-4.1-1.69-3.31-7.23-6.47-13.5-9.5-18.79-1.05-1.83-.11-4.13,1.91-4.74,8.01-2.43,16.56-4.16,25.66-5.21,1.33-.15,2.7.19,3.77,1.01,5.59,4.28,10.49,9.94,14.72,16.98,1.18,1.99-.07,4.56-2.36,4.86Z"/>
  <path class="cls-1" d="m137.6,65.78c1.53,3.27.14,7.15-3.13,8.7-7.32,3.48-14.49,7.56-21.36,12.24-2.66,1.81-5.21,3.66-7.65,5.56-1.51,1.17-3.72.42-4.25-1.41-1.6-5.55-2.58-10.92-2.92-16.09-.24-3.7-.16-7.29.25-10.76.09-.73.47-1.39,1.05-1.84,7.72-5.97,16.25-10.86,25.61-14.68,1.33-.54,2.85,0,3.57,1.24,2.83,4.77,5.77,10.5,8.83,17.04Z"/>
  <path class="cls-1" d="m194.34,157.45c-2.85.51-5.67,1.15-8.45,1.92-3.41.94-6.96-.97-8.14-4.3-3.77-10.61-7.38-20.61-10.83-29.98-.81-2.21.31-4.65,2.51-5.51,8.02-3.12,16.04-5.45,23.66-6.81,2.4-.43,4.7,1.23,5.02,3.65,1.49,11.4,2.14,22.87,1.93,34.4-.07,3.3-2.46,6.05-5.7,6.63Z"/>
  <path class="cls-1" d="m172.05,164.34c-4.2,1.89-8.16,4.08-11.79,6.51-1.5,1.01-3.53.8-4.82-.47-8.67-8.49-16.44-16.94-23.25-25.27-1.4-1.71-1.03-4.23.75-5.54,7.49-5.5,15.7-10.43,24.13-14.57,2.06-1.01,4.53-.04,5.33,2.1,3.82,10.36,7.72,21.22,11.69,32.42.65,1.89-.22,4-2.04,4.82Z"/>
  <path class="cls-1" d="m94.29,58.87l-.02.08c-.15.78-.56,1.48-1.17,1.99-1.97,1.65-5.39,5.01-8.13,7.76-.85.86-2.21-.18-1.63-1.25,1.94-3.56,4.46-7.04,7.48-10.36,1.37-1.5,3.86-.21,3.47,1.78Z"/>
  <path class="cls-1" d="m97.28,95.27c.59,1.86,0,3.88-1.44,5.22-6.22,5.85-11.47,11.99-15.67,18.32-1.32,1.99-4.4,1.36-4.9-.97-.28-1.3-.52-2.51-.64-3.35-1.11-7.53-.99-15.1.32-22.59.47-2.71,1.52-5.31,3.15-7.52,3.37-4.59,6.99-8.84,10.86-12.75,1.53-1.55,4.18-.51,4.27,1.66.02.6.05,1.2.09,1.81.42,6.49,1.76,13.23,3.96,20.17Z"/>
  <path class="cls-1" d="m72.93,132.27c-.45,1.07-.86,2.15-1.25,3.23-.71,1.98-3.64,1.68-3.95-.4-1.08-7.25-1.1-14.72-.09-22.33.14-1.03,1.62-1.03,1.74,0,.43,3.69,1.13,7.37,2.1,11.04.46,1.73.98,3.43,1.55,5.11.38,1.09.34,2.28-.1,3.35Z"/>
  <path class="cls-1" d="m97.93,172.58c-.69,1.81-1.24,3.6-1.65,5.38-.5,2.18-3.14,3.06-4.78,1.55-6.65-6.17-12.19-13.35-16.36-21.43-.29-.55-.65-1.32-1-2.06-.8-1.69-1.09-3.56-.9-5.42.07-.65.15-1.29.24-1.94.38-2.67.96-5.35,1.75-8.02.37-1.26,2.1-1.44,2.71-.28,4.53,8.7,10.66,16.82,18.21,24.22,2.13,2.09,2.84,5.22,1.78,8Z"/>
  <path class="cls-1" d="m149.65,171.81c2.13,2.11,2.2,5.56.13,7.72-1.55,1.62-2.96,3.3-4.22,5.04-.12.17-.24.34-.36.51-1.55,2.22-4.45,3.02-6.91,1.89-11.28-5.17-21.36-11.29-29.99-18.22-1.23-.99-1.48-2.76-.61-4.08,3.75-5.69,8.96-11.51,15.53-17.32,1.32-1.16,3.32-1.01,4.43.35,6.47,7.94,13.82,15.99,22,24.11Z"/>
  <path class="cls-1" d="m139.88,195.99c-.27.95-.5,1.91-.68,2.87-.43,2.26-2.73,3.65-4.96,3.08-11.85-2.99-22.7-7.72-32.07-14.02-1.13-.76-1.77-2.06-1.72-3.42.11-3.17.8-6.46,2.06-9.84.6-1.6,2.61-2.11,3.96-1.06,9.16,7.17,19.81,13.47,31.71,18.77,1.38.62,2.12,2.15,1.7,3.62Z"/>
  <path class="cls-1" d="m139.22,210.63c.18.92-.6,1.76-1.53,1.64-10.54-1.28-19.84-4.61-27.95-9.98-.45-.3-1.08-.83-1.79-1.5-1.38-1.3.17-3.49,1.86-2.63,8.46,4.3,17.76,7.56,27.66,9.68.82.18,1.43.85,1.56,1.68.06.36.12.73.19,1.11Z"/>
  <g>
    <polygon class="cls-1" points="208.34 90.36 217.35 83.67 206.6 80.47 208.34 90.36"/>
    <path class="cls-1" d="m229.11,102.85c-1.11-11.73-4.42-22.72-10.03-32.49-.66-.54-1.26-1.03-1.92-1.58-7.36-2.46-15.64-3.64-24.46-3.61-1.16,0-1.92,1.19-1.49,2.26,1.81,4.44,3.43,9.22,4.86,14.34,1.68,6.02,3.14,12.06,4.35,18.13.76,3.79,4.07,6.5,7.93,6.56,5.08.07,9.85.7,14.18,1.95,3.51,1,6.92-1.93,6.58-5.56Zm-16.32-7.37c-5.89,1.04-11.51-2.89-12.55-8.79-1.04-5.89,2.89-11.51,8.79-12.55,5.89-1.04,11.51,2.89,12.55,8.79,1.04,5.89-2.9,11.51-8.79,12.55Z"/>
  </g>
  <path class="cls-1" d="m118.1,135.17c-6.97-9.83-12.53-19.46-16.62-28.79-.66-1.51-2.65-1.85-3.83-.7-6.99,6.81-12.59,14.01-16.67,21.38-1.3,2.34-1.39,5.17-.28,7.6,4.3,9.37,10.56,18.1,18.51,25.99,1.6,1.59,4.23,1.35,5.53-.49,3.27-4.63,7.4-9.31,12.34-13.95,3.07-2.89,3.46-7.61,1.02-11.04Zm-8.54,4.33c-1.94,1.43-4.69.97-6.06-1.04-1.24-1.83-.87-4.34.86-5.72.67-.53,1.44-.83,2.22-.91l-4.23-5.68-9.2,9.14,6.68,8.96h0c1.3,1.88.88,4.46-.96,5.84-1.93,1.44-4.68,1-6.06-1-1.26-1.83-.89-4.36.85-5.75.66-.53,1.44-.83,2.22-.91l-7.47-10.02c-.32-.43-.27-1.03.1-1.4l10.66-10.59c.46-.46,1.23-.4,1.61.12l9.63,12.92c1.42,1.91,1.06,4.63-.85,6.04Z"/>
  <g>
    <rect class="cls-1" x="124.58" y="117.48" width="3.09" height="2.14" transform="translate(-41.9 76.95) rotate(-29.32)"/>
    <rect class="cls-1" x="122.4" y="113.6" width="3.09" height="2.14" transform="translate(-40.28 75.38) rotate(-29.32)"/>
    <rect class="cls-1" x="118.04" y="105.84" width="3.09" height="2.14" transform="translate(-37.03 72.25) rotate(-29.32)"/>
    <rect class="cls-1" x="120.22" y="109.72" width="3.09" height="2.14" transform="translate(-38.66 73.82) rotate(-29.32)"/>
    <polygon class="cls-1" points="131.33 114.87 135.8 105.44 125.42 104.35 131.33 114.87"/>
    <rect class="cls-1" x="135.74" y="95.89" width="3.09" height="2.14" transform="translate(-29.89 79.65) rotate(-29.32)"/>
    <path class="cls-1" d="m157.13,113.03c-4.25-11.22-8.38-21.67-12.35-31.06-1.32-3.13-4.99-4.52-8.06-3.06-7.12,3.38-14.1,7.37-20.8,11.93-2.85,1.94-5.57,3.93-8.15,5.97-2.15,1.69-2.89,4.61-1.79,7.12,4.09,9.33,9.74,19.04,16.84,28.98,2.03,2.84,5.98,3.47,8.82,1.44,7.03-5.02,14.61-9.56,22.4-13.43,2.91-1.45,4.24-4.86,3.09-7.89Zm-31.8,10.35l-10.3-18.34,23.04-12.94,10.3,18.34-23.04,12.94Z"/>
    <rect class="cls-1" x="137.92" y="99.77" width="3.09" height="2.14" transform="translate(-31.52 81.21) rotate(-29.32)"/>
    <rect class="cls-1" x="140.09" y="103.65" width="3.09" height="2.14" transform="translate(-33.14 82.78) rotate(-29.32)"/>
    <rect class="cls-1" x="142.27" y="107.54" width="3.09" height="2.14" transform="translate(-34.76 84.34) rotate(-29.32)"/>
  </g>
  <path class="cls-1" d="m195.8,102.15c-1.23-6.38-2.74-12.72-4.5-19.03-1.45-5.17-3.09-9.97-4.92-14.39-.81-1.97-2.82-3.15-4.94-2.92-9.63,1.04-19.68,3.37-29.7,6.89-2.58.91-3.89,3.79-2.82,6.31,4.16,9.81,8.57,20.97,13.26,33.42.05.17.12.33.18.5.61,1.38,2.01,2.32,3.6,2.32.47,0,.9-.08,1.31-.22.1-.03.18-.07.27-.1,8.2-3.19,16.44-5.6,24.31-7.01,2.72-.48,4.46-3.07,3.95-5.77Zm-19.11-1.25c-1.43.41-2.92-.42-3.33-1.85-.41-1.43.42-2.92,1.85-3.33s2.92.42,3.33,1.85c.41,1.42-.42,2.92-1.85,3.33Zm3.47-7.95h0c-.39.71-1.24,1.05-2.01.79-1.18-.41-2.49-.47-3.77-.1-1.29.37-2.36,1.11-3.15,2.08-.51.63-1.41.79-2.12.39h0c-.93-.52-1.15-1.75-.47-2.58,1.2-1.47,2.85-2.6,4.81-3.16s3.96-.47,5.76.14c1.01.35,1.47,1.51.95,2.44Zm2.61-4.74c-.44.79-1.4,1.11-2.24.76-2.33-.97-5-1.19-7.61-.45s-4.76,2.34-6.23,4.4c-.52.74-1.51.98-2.3.54-.9-.5-1.2-1.68-.6-2.53,1.91-2.71,4.73-4.82,8.16-5.8s6.93-.68,9.99.61c.96.41,1.33,1.57.83,2.47Zm3.37-4.74h0c-.48.86-1.54,1.21-2.43.8-3.72-1.7-8.03-2.13-12.26-.92s-7.66,3.85-9.93,7.26c-.55.82-1.63,1.08-2.49.61h0c-.97-.54-1.27-1.79-.65-2.71,2.75-4.12,6.91-7.33,12.03-8.79s10.35-.94,14.86,1.12c1.01.45,1.41,1.66.87,2.63Z"/>
</svg>